<svg width="256" height="256" viewBox="0 0 256 256" fill="none" xmlns="http://www.w3.org/2000/svg">
<rect width="256" height="256" rx="27" fill="black"/>
<path d="M63.9987 160L21.332 117.333L93.332 45.1201C109.159 30.9476 129.814 23.3759 151.052 23.9613C172.289 24.5466 192.496 33.2444 207.518 48.2672C222.541 63.29 231.239 83.4965 231.824 104.734C232.41 125.971 224.838 146.626 210.665 162.453L138.665 234.667L95.9987 192L164.159 124.16C167.521 119.766 169.173 114.301 168.808 108.78C168.442 103.259 166.084 98.0595 162.172 94.1473C158.259 90.235 153.059 87.8769 147.539 87.5113C142.018 87.1458 136.553 88.7979 132.159 92.1602L63.9987 160Z" stroke="white" stroke-width="14" stroke-linecap="round" stroke-linejoin="round"/>
<path d="M53.332 85.3335L95.9987 128" stroke="white" stroke-width="14" stroke-linecap="round" stroke-linejoin="round"/>
<path d="M128 160L170.667 202.667" stroke="white" stroke-width="14" stroke-linecap="round" stroke-linejoin="round"/>
</svg>
