<svg width="600" height="600" viewBox="0 0 600 600" fill="none" xmlns="http://www.w3.org/2000/svg">
<rect width="600" height="600" rx="100" fill="white"/>
<path d="M300.481 368.666L391.538 459.722" stroke="black" stroke-width="40" stroke-linecap="round" stroke-linejoin="round"/>
<path d="M80.8531 269.596C75.7098 274.74 72.8203 281.717 72.8203 288.991C72.8203 296.266 75.7098 303.242 80.8531 308.386L133.119 360.652C138.264 365.796 145.24 368.685 152.514 368.685C159.789 368.685 166.765 365.796 171.909 360.652L309.154 223.408C313.638 218.924 318.961 215.367 324.82 212.94C330.679 210.513 336.958 209.264 343.3 209.264C349.641 209.264 355.921 210.513 361.78 212.94C367.638 215.367 372.962 218.924 377.446 223.408C381.93 227.892 385.487 233.216 387.914 239.074C390.341 244.933 391.59 251.213 391.59 257.554C391.59 263.896 390.341 270.175 387.914 276.034C385.487 281.893 381.93 287.216 377.446 291.7L240.202 428.945C235.058 434.089 232.169 441.065 232.169 448.34C232.169 455.614 235.058 462.59 240.202 467.735L292.468 520.001C297.612 525.144 304.588 528.034 311.863 528.034C319.137 528.034 326.114 525.144 331.258 520.001L476.151 375.062C509.354 341.853 528.004 296.815 528 249.855C527.996 202.895 509.337 157.86 476.128 124.657C459.685 108.217 440.164 95.1766 418.681 86.2803C397.198 77.384 374.173 72.8062 350.921 72.8084C303.961 72.8126 258.926 91.4715 225.724 124.68L80.8531 269.596Z" stroke="black" stroke-width="40" stroke-linecap="round" stroke-linejoin="round"/>
<path d="M141.135 209.317L232.191 300.374" stroke="black" stroke-width="40" stroke-linecap="round" stroke-linejoin="round"/>
</svg>
